# xmcd CD database file
#
# Track frame offsets:
#	150
#	17470
#	36369
#	56210
#	76280
#	95730
#	112805
#	128184
#	149682
#	168966
#	196571
#	214479
#	232341
#	249829
#	267259
#	283009
#	299057
#	321857
#
# Disc length: 4533 seconds
#
# Revision: 0
# Processed by: cddbd v1.5.2PL0 Copyright (c) Steve Scherf et al.
# Submitted via: CDex 1.70beta2
#
DISCID=1411b312
DTITLE=Pointer Sisters - The Very Best Of - 1997
DYEAR=1997
DGENRE=Rhythmic Soul
TTITLE0=Pointer Sisters - I'm So Excited
TTITLE1=Pointer Sisters - Neutron Dance
TTITLE2=Pointer Sisters - Twist My Arm
TTITLE3=Pointer Sisters - Jump (For My Love)
TTITLE4=Pointer Sisters - Dare Me
TTITLE5=Pointer Sisters - Slow Hand
TTITLE6=Pointer Sisters - Fire
TTITLE7=Pointer Sisters - Automatic
TTITLE8=Pointer Sisters - Baby Come And Get It
TTITLE9=Pointer Sisters - If You Wanna Get Back Your Lady
TTITLE10=Pointer Sisters - American Music
TTITLE11=Pointer Sisters - Happiness
TTITLE12=Pointer Sisters - Should I Do It
TTITLE13=Pointer Sisters - Goldmine
TTITLE14=Pointer Sisters - Heart To Heart
TTITLE15=Pointer Sisters - He's So Shy
TTITLE16=Pointer Sisters - Fairytale
TTITLE17=Pointer Sisters - I Need You
EXTD=YEAR: 1997
EXTT0=
EXTT1=
EXTT2=
EXTT3=
EXTT4=
EXTT5=
EXTT6=
EXTT7=
EXTT8=
EXTT9=
EXTT10=
EXTT11=
EXTT12=
EXTT13=
EXTT14=
EXTT15=
EXTT16=
EXTT17=
PLAYORDER=
